<svg xmlns="http://www.w3.org/2000/svg" xmlns:xlink="http://www.w3.org/1999/xlink" preserveAspectRatio="xMidYMid" width="80" height="80" viewBox="0 0 80 80">
  <defs>
    <style>
      .cls-1 {
        fill: #fff;
        fill-rule: evenodd;
      }
    </style>
  </defs>
  <path d="M80.008,39.937 L80.005,39.937 C79.945,33.234 79.568,26.596 79.163,23.712 C77.862,14.459 72.178,6.805 64.677,3.163 C58.472,0.151 49.185,-0.101 40.000,-0.008 L40.000,-0.006 C33.265,0.050 26.573,0.431 23.675,0.839 C14.437,2.142 6.794,7.834 3.158,15.347 C0.151,21.561 -0.101,30.864 -0.008,40.063 L-0.004,40.063 C0.055,46.767 0.432,53.404 0.838,56.288 C2.139,65.541 7.822,73.196 15.324,76.837 C21.528,79.850 30.816,80.101 40.000,80.008 L40.000,80.006 C46.736,79.950 53.427,79.570 56.325,79.161 C65.564,77.858 73.206,72.166 76.842,64.653 C79.850,58.439 80.101,49.137 80.008,39.937 ZM21.621,34.482 L24.381,33.059 C25.159,34.983 27.190,35.832 29.322,35.832 C31.406,35.832 33.360,35.108 33.360,33.209 C33.360,31.560 31.630,30.884 29.298,30.634 C25.710,30.210 22.400,29.262 22.400,25.338 C22.400,21.742 25.962,20.266 29.196,20.241 C31.930,20.241 34.764,21.014 36.094,23.714 L33.460,25.065 C32.860,24.065 31.204,23.113 29.298,23.113 C26.838,23.113 25.658,24.139 25.658,25.437 C25.658,26.961 27.465,27.387 29.572,27.638 C33.235,28.086 36.649,29.037 36.649,33.209 C36.649,37.106 33.186,38.782 29.271,38.782 C25.688,38.782 22.926,37.682 21.621,34.482 ZM37.339,59.296 L31.553,59.296 L31.553,59.285 C27.464,59.165 24.040,56.614 24.040,51.461 L24.040,41.806 L27.351,41.806 L27.334,51.461 C27.334,54.490 29.006,56.122 31.564,56.249 L37.339,56.249 L37.339,59.296 ZM56.761,51.852 C56.761,57.021 53.578,59.670 49.164,59.670 C44.950,59.670 41.363,57.124 41.363,51.852 L41.363,41.832 L44.648,41.832 L44.648,51.852 C44.648,54.999 46.455,56.674 49.187,56.674 C51.925,56.674 53.479,54.849 53.479,51.852 L53.479,41.832 L56.761,41.832 L56.761,51.852 ZM49.076,38.731 C42.905,38.731 40.047,34.306 40.047,29.711 C40.047,25.113 43.004,20.492 49.076,20.492 C55.120,20.492 58.132,25.113 58.080,29.683 C58.029,34.208 55.247,38.731 49.076,38.731 ZM54.819,29.736 C54.769,32.609 53.214,35.705 49.076,35.705 C44.938,35.705 43.381,32.634 43.307,29.758 C43.231,26.812 44.938,23.489 49.076,23.489 C53.214,23.489 54.870,26.787 54.819,29.736 Z" class="cls-1"/>
</svg>
